<svg width="178" height="44" viewBox="0 0 178 44" fill="none" xmlns="http://www.w3.org/2000/svg">
<rect x="0.5" y="0.5" width="176.674" height="43" rx="21.5" fill="#0E0E0E"/>
<rect x="0.5" y="0.5" width="176.674" height="43" rx="21.5" stroke="#FFBE0D"/>
<path d="M22.68 27V15.8H27.704C28.9947 15.8 29.9867 16.0613 30.68 16.584C31.3733 17.096 31.72 17.8 31.72 18.696C31.72 19.304 31.5813 19.816 31.304 20.232C31.0373 20.648 30.6747 20.968 30.216 21.192C29.7573 21.416 29.2613 21.528 28.728 21.528L29.016 21.048C29.656 21.048 30.2213 21.16 30.712 21.384C31.2027 21.608 31.592 21.9387 31.88 22.376C32.168 22.8027 32.312 23.336 32.312 23.976C32.312 24.936 31.9493 25.6827 31.224 26.216C30.5093 26.7387 29.4427 27 28.024 27H22.68ZM24.28 25.704H27.96C28.8453 25.704 29.5227 25.5547 29.992 25.256C30.4613 24.9573 30.696 24.488 30.696 23.848C30.696 23.1973 30.4613 22.7227 29.992 22.424C29.5227 22.1253 28.8453 21.976 27.96 21.976H24.136V20.68H27.56C28.3707 20.68 29 20.5307 29.448 20.232C29.896 19.9333 30.12 19.4853 30.12 18.888C30.12 18.2907 29.896 17.8427 29.448 17.544C29 17.2453 28.3707 17.096 27.56 17.096H24.28V25.704ZM38.1974 27.096C37.344 27.096 36.5867 26.9093 35.9254 26.536C35.264 26.1627 34.7414 25.6507 34.3574 25C33.9734 24.3387 33.7814 23.592 33.7814 22.76C33.7814 21.9173 33.9734 21.1707 34.3574 20.52C34.7414 19.8693 35.264 19.3627 35.9254 19C36.5867 18.6267 37.344 18.44 38.1974 18.44C39.04 18.44 39.792 18.6267 40.4534 19C41.1254 19.3627 41.648 19.8693 42.0214 20.52C42.4054 21.16 42.5974 21.9067 42.5974 22.76C42.5974 23.6027 42.4054 24.3493 42.0214 25C41.648 25.6507 41.1254 26.1627 40.4534 26.536C39.792 26.9093 39.04 27.096 38.1974 27.096ZM38.1974 25.752C38.7414 25.752 39.2267 25.6293 39.6534 25.384C40.0907 25.1387 40.432 24.792 40.6774 24.344C40.9227 23.8853 41.0454 23.3573 41.0454 22.76C41.0454 22.152 40.9227 21.6293 40.6774 21.192C40.432 20.744 40.0907 20.3973 39.6534 20.152C39.2267 19.9067 38.7414 19.784 38.1974 19.784C37.6534 19.784 37.168 19.9067 36.7414 20.152C36.3147 20.3973 35.9734 20.744 35.7174 21.192C35.4614 21.6293 35.3334 22.152 35.3334 22.76C35.3334 23.3573 35.4614 23.8853 35.7174 24.344C35.9734 24.792 36.3147 25.1387 36.7414 25.384C37.168 25.6293 37.6534 25.752 38.1974 25.752ZM48.3536 27.096C47.5003 27.096 46.743 26.9093 46.0816 26.536C45.4203 26.1627 44.8976 25.6507 44.5136 25C44.1296 24.3387 43.9376 23.592 43.9376 22.76C43.9376 21.9173 44.1296 21.1707 44.5136 20.52C44.8976 19.8693 45.4203 19.3627 46.0816 19C46.743 18.6267 47.5003 18.44 48.3536 18.44C49.1963 18.44 49.9483 18.6267 50.6096 19C51.2816 19.3627 51.8043 19.8693 52.1776 20.52C52.5616 21.16 52.7536 21.9067 52.7536 22.76C52.7536 23.6027 52.5616 24.3493 52.1776 25C51.8043 25.6507 51.2816 26.1627 50.6096 26.536C49.9483 26.9093 49.1963 27.096 48.3536 27.096ZM48.3536 25.752C48.8976 25.752 49.383 25.6293 49.8096 25.384C50.247 25.1387 50.5883 24.792 50.8336 24.344C51.079 23.8853 51.2016 23.3573 51.2016 22.76C51.2016 22.152 51.079 21.6293 50.8336 21.192C50.5883 20.744 50.247 20.3973 49.8096 20.152C49.383 19.9067 48.8976 19.784 48.3536 19.784C47.8096 19.784 47.3243 19.9067 46.8976 20.152C46.471 20.3973 46.1296 20.744 45.8736 21.192C45.6176 21.6293 45.4896 22.152 45.4896 22.76C45.4896 23.3573 45.6176 23.8853 45.8736 24.344C46.1296 24.792 46.471 25.1387 46.8976 25.384C47.3243 25.6293 47.8096 25.752 48.3536 25.752ZM56.1259 24.952L56.1579 22.984L61.0379 18.52H62.8939L59.1499 22.2L58.3179 22.904L56.1259 24.952ZM54.8779 27V15.128H56.4139V27H54.8779ZM61.3579 27L58.0299 22.872L59.0219 21.64L63.2459 27H61.3579ZM74.2981 27V25.208L74.2181 24.872V21.816C74.2181 21.1653 74.0261 20.664 73.6421 20.312C73.2688 19.9493 72.7035 19.768 71.9461 19.768C71.4448 19.768 70.9541 19.8533 70.4741 20.024C69.9941 20.184 69.5888 20.4027 69.2581 20.68L68.6181 19.528C69.0555 19.176 69.5781 18.9093 70.1861 18.728C70.8048 18.536 71.4501 18.44 72.1221 18.44C73.2848 18.44 74.1808 18.7227 74.8101 19.288C75.4395 19.8533 75.7541 20.7173 75.7541 21.88V27H74.2981ZM71.5141 27.096C70.8848 27.096 70.3301 26.9893 69.8501 26.776C69.3808 26.5627 69.0181 26.2693 68.7621 25.896C68.5061 25.512 68.3781 25.08 68.3781 24.6C68.3781 24.1413 68.4848 23.7253 68.6981 23.352C68.9221 22.9787 69.2795 22.68 69.7701 22.456C70.2715 22.232 70.9435 22.12 71.7861 22.12H74.4741V23.224H71.8501C71.0821 23.224 70.5648 23.352 70.2981 23.608C70.0315 23.864 69.8981 24.1733 69.8981 24.536C69.8981 24.952 70.0635 25.288 70.3941 25.544C70.7248 25.7893 71.1835 25.912 71.7701 25.912C72.3461 25.912 72.8475 25.784 73.2741 25.528C73.7115 25.272 74.0261 24.8987 74.2181 24.408L74.5221 25.464C74.3195 25.9653 73.9621 26.3653 73.4501 26.664C72.9381 26.952 72.2928 27.096 71.5141 27.096ZM86.3975 27.096C85.5762 27.096 84.8402 26.9147 84.1895 26.552C83.5495 26.1893 83.0428 25.6827 82.6695 25.032C82.2962 24.3813 82.1095 23.624 82.1095 22.76C82.1095 21.896 82.2962 21.144 82.6695 20.504C83.0428 19.8533 83.5495 19.3467 84.1895 18.984C84.8402 18.6213 85.5762 18.44 86.3975 18.44C87.1122 18.44 87.7575 18.6 88.3335 18.92C88.9095 19.24 89.3682 19.72 89.7095 20.36C90.0615 21 90.2375 21.8 90.2375 22.76C90.2375 23.72 90.0668 24.52 89.7255 25.16C89.3948 25.8 88.9415 26.2853 88.3655 26.616C87.7895 26.936 87.1335 27.096 86.3975 27.096ZM86.5255 25.752C87.0588 25.752 87.5388 25.6293 87.9655 25.384C88.4028 25.1387 88.7442 24.792 88.9895 24.344C89.2455 23.8853 89.3735 23.3573 89.3735 22.76C89.3735 22.152 89.2455 21.6293 88.9895 21.192C88.7442 20.744 88.4028 20.3973 87.9655 20.152C87.5388 19.9067 87.0588 19.784 86.5255 19.784C85.9815 19.784 85.4962 19.9067 85.0695 20.152C84.6428 20.3973 84.3015 20.744 84.0455 21.192C83.7895 21.6293 83.6615 22.152 83.6615 22.76C83.6615 23.3573 83.7895 23.8853 84.0455 24.344C84.3015 24.792 84.6428 25.1387 85.0695 25.384C85.4962 25.6293 85.9815 25.752 86.5255 25.752ZM89.4215 27V24.712L89.5175 22.744L89.3575 20.776V15.128H90.8935V27H89.4215ZM97.5758 27.096C96.6691 27.096 95.8691 26.9093 95.1758 26.536C94.4931 26.1627 93.9598 25.6507 93.5758 25C93.2024 24.3493 93.0158 23.6027 93.0158 22.76C93.0158 21.9173 93.1971 21.1707 93.5598 20.52C93.9331 19.8693 94.4398 19.3627 95.0798 19C95.7304 18.6267 96.4611 18.44 97.2718 18.44C98.0931 18.44 98.8184 18.6213 99.4478 18.984C100.077 19.3467 100.568 19.8587 100.92 20.52C101.282 21.1707 101.464 21.9333 101.464 22.808C101.464 22.872 101.458 22.9467 101.448 23.032C101.448 23.1173 101.442 23.1973 101.432 23.272H94.2158V22.168H100.632L100.008 22.552C100.018 22.008 99.9064 21.5227 99.6718 21.096C99.4371 20.6693 99.1118 20.3387 98.6958 20.104C98.2904 19.8587 97.8158 19.736 97.2718 19.736C96.7384 19.736 96.2638 19.8587 95.8478 20.104C95.4318 20.3387 95.1064 20.6747 94.8718 21.112C94.6371 21.5387 94.5198 22.0293 94.5198 22.584V22.84C94.5198 23.4053 94.6478 23.912 94.9038 24.36C95.1704 24.7973 95.5384 25.1387 96.0078 25.384C96.4771 25.6293 97.0158 25.752 97.6238 25.752C98.1251 25.752 98.5784 25.6667 98.9838 25.496C99.3998 25.3253 99.7624 25.0693 100.072 24.728L100.92 25.72C100.536 26.168 100.056 26.5093 99.4798 26.744C98.9144 26.9787 98.2798 27.096 97.5758 27.096ZM114.205 18.44C114.887 18.44 115.49 18.5733 116.013 18.84C116.535 19.1067 116.941 19.512 117.229 20.056C117.527 20.6 117.677 21.288 117.677 22.12V27H116.141V22.296C116.141 21.4747 115.949 20.856 115.565 20.44C115.181 20.024 114.642 19.816 113.949 19.816C113.437 19.816 112.989 19.9227 112.605 20.136C112.221 20.3493 111.922 20.664 111.709 21.08C111.506 21.496 111.405 22.0133 111.405 22.632V27H109.869V22.296C109.869 21.4747 109.677 20.856 109.293 20.44C108.919 20.024 108.381 19.816 107.677 19.816C107.175 19.816 106.733 19.9227 106.349 20.136C105.965 20.3493 105.666 20.664 105.453 21.08C105.239 21.496 105.133 22.0133 105.133 22.632V27H103.597V18.52H105.069V20.776L104.829 20.2C105.095 19.6453 105.506 19.2133 106.061 18.904C106.615 18.5947 107.261 18.44 107.997 18.44C108.807 18.44 109.506 18.6427 110.093 19.048C110.679 19.4427 111.063 20.0453 111.245 20.856L110.621 20.6C110.877 19.9493 111.325 19.4267 111.965 19.032C112.605 18.6373 113.351 18.44 114.205 18.44ZM124.135 27.096C123.282 27.096 122.524 26.9093 121.863 26.536C121.202 26.1627 120.679 25.6507 120.295 25C119.911 24.3387 119.719 23.592 119.719 22.76C119.719 21.9173 119.911 21.1707 120.295 20.52C120.679 19.8693 121.202 19.3627 121.863 19C122.524 18.6267 123.282 18.44 124.135 18.44C124.978 18.44 125.73 18.6267 126.391 19C127.063 19.3627 127.586 19.8693 127.959 20.52C128.343 21.16 128.535 21.9067 128.535 22.76C128.535 23.6027 128.343 24.3493 127.959 25C127.586 25.6507 127.063 26.1627 126.391 26.536C125.73 26.9093 124.978 27.096 124.135 27.096ZM124.135 25.752C124.679 25.752 125.164 25.6293 125.591 25.384C126.028 25.1387 126.37 24.792 126.615 24.344C126.86 23.8853 126.983 23.3573 126.983 22.76C126.983 22.152 126.86 21.6293 126.615 21.192C126.37 20.744 126.028 20.3973 125.591 20.152C125.164 19.9067 124.679 19.784 124.135 19.784C123.591 19.784 123.106 19.9067 122.679 20.152C122.252 20.3973 121.911 20.744 121.655 21.192C121.399 21.6293 121.271 22.152 121.271 22.76C121.271 23.3573 121.399 23.8853 121.655 24.344C121.911 24.792 122.252 25.1387 122.679 25.384C123.106 25.6293 123.591 25.752 124.135 25.752Z" fill="white"/>
<g clip-path="url(#clip0_856_19)">
<g clip-path="url(#clip1_856_19)">
<mask id="mask0_856_19" style="mask-type:luminance" maskUnits="userSpaceOnUse" x="138" y="14" width="16" height="16">
<path d="M154 14H138V30H154V14Z" fill="white"/>
</mask>
<g mask="url(#mask0_856_19)">
<path d="M144 17L149 22L144 27" stroke="#FFBE0D" stroke-linecap="round" stroke-linejoin="round"/>
</g>
</g>
</g>
<defs>
<clipPath id="clip0_856_19">
<rect width="16" height="17" fill="white" transform="translate(138 13.5)"/>
</clipPath>
<clipPath id="clip1_856_19">
<rect width="16" height="17" fill="white" transform="translate(138 13.5)"/>
</clipPath>
</defs>
</svg>
