<svg width="116" height="48" viewBox="0 0 116 48" fill="none" xmlns="http://www.w3.org/2000/svg">
<path d="M2.86932 39V9.90909H8.1392V34.5824H20.9517V39H2.86932ZM50.3871 24.4545C50.3871 27.589 49.8 30.2737 48.6257 32.5085C47.4609 34.7339 45.87 36.4384 43.853 37.6222C41.8454 38.8059 39.5679 39.3977 37.0206 39.3977C34.4732 39.3977 32.1911 38.8059 30.174 37.6222C28.1664 36.429 26.5755 34.7197 25.4013 32.4943C24.2365 30.2595 23.6541 27.5795 23.6541 24.4545C23.6541 21.3201 24.2365 18.6402 25.4013 16.4148C26.5755 14.1799 28.1664 12.4706 30.174 11.2869C32.1911 10.1032 34.4732 9.51136 37.0206 9.51136C39.5679 9.51136 41.8454 10.1032 43.853 11.2869C45.87 12.4706 47.4609 14.1799 48.6257 16.4148C49.8 18.6402 50.3871 21.3201 50.3871 24.4545ZM45.0888 24.4545C45.0888 22.2481 44.7431 20.3873 44.0518 18.8722C43.37 17.3475 42.4231 16.197 41.2109 15.4205C39.9988 14.6345 38.602 14.2415 37.0206 14.2415C35.4392 14.2415 34.0424 14.6345 32.8303 15.4205C31.6181 16.197 30.6664 17.3475 29.9751 18.8722C29.2933 20.3873 28.9524 22.2481 28.9524 24.4545C28.9524 26.661 29.2933 28.5265 29.9751 30.0511C30.6664 31.5663 31.6181 32.7169 32.8303 33.5028C34.0424 34.2794 35.4392 34.6676 37.0206 34.6676C38.602 34.6676 39.9988 34.2794 41.2109 33.5028C42.4231 32.7169 43.37 31.5663 44.0518 30.0511C44.7431 28.5265 45.0888 26.661 45.0888 24.4545ZM74.858 19.1989C74.6212 18.4318 74.2945 17.7453 73.8778 17.1392C73.4706 16.5237 72.9782 15.9981 72.4006 15.5625C71.8324 15.1269 71.179 14.8002 70.4403 14.5824C69.7017 14.3551 68.8968 14.2415 68.0256 14.2415C66.4631 14.2415 65.071 14.6345 63.8494 15.4205C62.6278 16.2064 61.6667 17.3617 60.9659 18.8864C60.2746 20.4015 59.929 22.2481 59.929 24.4261C59.929 26.6231 60.2746 28.4839 60.9659 30.0085C61.6572 31.5331 62.6184 32.6932 63.8494 33.4886C65.0805 34.2746 66.5104 34.6676 68.1392 34.6676C69.6165 34.6676 70.8949 34.3835 71.9744 33.8153C73.0634 33.2472 73.9015 32.4422 74.4886 31.4006C75.0758 30.3494 75.3693 29.1184 75.3693 27.7074L76.5625 27.892H68.6648V23.7727H80.4688V27.267C80.4688 29.7576 79.9384 31.9119 78.8778 33.7301C77.8172 35.5483 76.3589 36.9498 74.5028 37.9347C72.6468 38.91 70.5161 39.3977 68.1108 39.3977C65.4309 39.3977 63.0777 38.7964 61.0511 37.5938C59.0341 36.3816 57.4574 34.6629 56.321 32.4375C55.1941 30.2027 54.6307 27.5511 54.6307 24.483C54.6307 22.1345 54.9621 20.0369 55.625 18.1903C56.2973 16.3438 57.2348 14.7765 58.4375 13.4886C59.6402 12.1913 61.0511 11.2064 62.6705 10.5341C64.2898 9.85227 66.0511 9.51136 67.9545 9.51136C69.5644 9.51136 71.0653 9.74811 72.4574 10.2216C73.8494 10.6856 75.0852 11.3485 76.1648 12.2102C77.2538 13.072 78.1487 14.0947 78.8494 15.2784C79.5502 16.4621 80.0095 17.7689 80.2273 19.1989H74.858ZM111.559 24.4545C111.559 27.589 110.972 30.2737 109.798 32.5085C108.633 34.7339 107.042 36.4384 105.025 37.6222C103.017 38.8059 100.74 39.3977 98.1925 39.3977C95.6451 39.3977 93.3629 38.8059 91.3459 37.6222C89.3383 36.429 87.7474 34.7197 86.5732 32.4943C85.4084 30.2595 84.826 27.5795 84.826 24.4545C84.826 21.3201 85.4084 18.6402 86.5732 16.4148C87.7474 14.1799 89.3383 12.4706 91.3459 11.2869C93.3629 10.1032 95.6451 9.51136 98.1925 9.51136C100.74 9.51136 103.017 10.1032 105.025 11.2869C107.042 12.4706 108.633 14.1799 109.798 16.4148C110.972 18.6402 111.559 21.3201 111.559 24.4545ZM106.261 24.4545C106.261 22.2481 105.915 20.3873 105.224 18.8722C104.542 17.3475 103.595 16.197 102.383 15.4205C101.171 14.6345 99.7739 14.2415 98.1925 14.2415C96.611 14.2415 95.2143 14.6345 94.0021 15.4205C92.79 16.197 91.8383 17.3475 91.147 18.8722C90.4652 20.3873 90.1243 22.2481 90.1243 24.4545C90.1243 26.661 90.4652 28.5265 91.147 30.0511C91.8383 31.5663 92.79 32.7169 94.0021 33.5028C95.2143 34.2794 96.611 34.6676 98.1925 34.6676C99.7739 34.6676 101.171 34.2794 102.383 33.5028C103.595 32.7169 104.542 31.5663 105.224 30.0511C105.915 28.5265 106.261 26.661 106.261 24.4545Z" fill="white"/>
</svg>
