<svg width="121" height="40" viewBox="0 0 121 40" fill="none" xmlns="http://www.w3.org/2000/svg">
<mask id="mask0_856_111" style="mask-type:luminance" maskUnits="userSpaceOnUse" x="0" y="0" width="121" height="33">
<path d="M121 0H0V33H121V0Z" fill="white"/>
</mask>
<g mask="url(#mask0_856_111)">
<path d="M49.2931 7.18767C49.2299 8.14849 48.7568 9.1049 47.6719 9.66023C46.4804 10.2685 45.3308 9.61836 45.1956 8.30936C45.0796 7.17151 45.8156 5.88235 46.8484 5.41957C48.1346 4.84514 49.2901 5.57677 49.2931 7.18767Z" fill="#595959"/>
<path d="M119.274 18.3342C118.718 17.5894 118.47 17.5571 117.82 18.2292C117.028 19.046 116.165 19.7696 115.176 20.3381C113.527 21.285 111.405 21.2762 110.192 20.2999C109.752 19.9459 109.261 19.5272 109.449 18.8969C109.634 18.2843 110.256 18.4804 110.721 18.4422C113.32 18.2262 115.564 17.3558 116.961 15.0265C118.756 12.036 117.067 8.37128 113.751 8.12447C112.005 7.99519 110.456 8.60781 109.144 9.77725C107.157 11.549 106.267 13.8321 105.909 16.3847C105.607 18.5135 104.256 19.9694 102.535 21.0822C101.541 21.7265 100.764 21.1645 100.836 19.9657C100.889 19.0732 101.063 18.1954 101.281 17.3249C102.116 14.0062 103.08 10.7204 104.035 7.43324C104.642 5.34854 105.265 3.26824 105.883 1.18721C105.997 0.801565 106.077 0.420324 105.628 0.182324C104.564 -0.383293 102.973 0.253577 102.651 1.37085C101.542 5.20016 100.37 9.01109 99.3606 12.8646C98.9346 14.4888 97.951 14.8994 96.5223 15.0713C95.6687 15.1763 95.4101 14.9295 95.2867 14.0972C95.2294 13.7197 95.1942 13.3362 95.1244 12.9594C94.5434 9.73831 91.8769 8.49102 88.9849 10.0814C88.6301 10.2775 88.2657 10.5904 87.8529 10.2606C87.4482 9.93885 87.6391 9.51354 87.7618 9.12716C88.4251 7.03143 89.0877 4.93645 89.7657 2.84734C90.349 1.04838 90.3012 0.969781 88.42 1.00724C87.1903 1.03148 87.1036 1.09098 86.7635 2.27217C85.6771 6.05372 84.5966 9.83528 83.5123 13.6183C83.0518 15.2292 82.2335 15.8844 80.5557 15.9851C79.7249 16.0358 79.4112 15.7831 79.3591 14.967C79.2923 13.9584 79.0572 13.0013 78.5592 12.1154C77.7563 10.6852 76.3136 10.0373 74.7005 10.3678C74.057 10.5001 73.4847 10.7887 72.9096 11.0782C72.5761 11.2456 72.2272 11.3815 71.8988 11.0936C71.5903 10.8262 71.7005 10.489 71.8033 10.168C72.1412 9.0963 72.4835 8.0253 72.8244 6.95504C73.2372 5.66367 73.6669 4.38038 74.057 3.08313C74.3604 2.0753 74.1238 1.80278 73.0881 1.88138C72.806 1.90195 72.5188 1.94382 72.2382 1.92398C71.4977 1.86889 71.1209 2.18402 70.9174 2.90169C69.7745 6.9308 68.5257 10.932 67.4995 14.9941C67.3276 15.6773 66.9662 16.1202 66.3418 16.4192C65.8195 16.669 65.2774 16.8122 64.7089 16.8673C63.8156 16.9532 63.4564 16.6668 63.416 15.7801C63.3727 14.8179 63.1464 13.9158 62.6881 13.0659C61.8661 11.5454 60.325 10.8725 58.6428 11.2985C58.0081 11.4594 57.4315 11.7393 56.8784 12.072C56.6205 12.2263 56.3532 12.3078 56.0836 12.1088C55.8213 11.917 55.7824 11.6401 55.8412 11.3514C55.8926 11.1017 55.9675 10.8571 56.0439 10.6132C56.7168 8.49469 57.4029 6.37987 58.0618 4.25697C58.4746 2.93255 58.2513 2.67104 56.8909 2.80032C56.6852 2.82016 56.478 2.84734 56.2716 2.83852C55.5694 2.80693 55.1852 3.13602 54.9927 3.8008C53.6162 8.56301 52.241 13.323 51.0055 18.1227C50.3987 20.4718 48.9943 22.3501 47.1755 23.9324C46.7259 24.3224 46.1529 24.6574 45.5469 24.3217C44.9475 23.9889 44.9549 23.341 45.0107 22.7504C45.101 21.8095 45.2619 20.878 45.4918 19.9591C46.0435 17.7524 46.7274 15.5825 47.39 13.4075C47.6529 12.5451 47.4252 12.266 46.5276 12.299C46.1662 12.3115 45.8048 12.3409 45.4426 12.338C44.8109 12.3343 44.4495 12.6164 44.2827 13.2334C43.7965 15.0331 43.2389 16.8144 42.7761 18.6207C42.2237 20.7759 40.9214 22.475 39.45 24.0616C38.9586 24.5913 38.3122 25.2127 37.4961 24.7588C36.7145 24.3224 36.8614 23.4916 36.9885 22.7534C37.4601 20.0179 38.5054 17.4557 39.4324 14.8575C39.8379 13.7197 39.6344 13.4405 38.3996 13.4354C37.1082 13.4288 35.8168 13.4141 34.5247 13.3766C33.8849 13.3583 33.3619 13.1577 33.2613 12.4041C33.2055 11.9861 32.9065 11.8047 32.4826 11.8274C32.1484 11.8465 31.8127 11.8759 31.477 11.8781C30.857 11.8796 30.5404 12.1932 30.4207 12.7787C29.4562 17.5438 27.8703 22.0835 25.361 26.2852C25.2126 26.5349 25.0775 26.8141 25.278 27.0726C25.6945 27.6096 26.2271 28.0768 26.8933 28.187C27.5243 28.2891 27.6962 27.6361 27.9452 27.2137C29.6545 24.307 30.8592 21.1843 31.892 17.9949C32.5568 15.9373 32.5487 15.9366 34.7069 16.1922C35.5487 16.2914 35.7867 16.644 35.5113 17.4483C35.1638 18.4642 34.7745 19.4655 34.4292 20.4806C33.9349 21.9446 33.655 23.4409 33.7667 24.9968C33.9327 27.3018 35.9997 28.6218 38.191 27.819C39.2201 27.4421 39.9686 26.7083 40.7171 25.9612C41.5156 25.1613 41.7867 25.201 42.3266 26.1574C42.9466 27.2592 44.044 27.7756 45.4022 27.5949C46.4328 27.4583 47.3327 27.0256 48.0797 26.319C48.6586 25.7725 49.2168 25.2032 49.7465 24.6111C50.4443 23.8332 50.7308 23.8464 51.2766 24.772C52.1757 26.2962 53.5295 27.019 55.2991 27.0638C57.0437 27.1101 58.4555 26.3777 59.6859 25.2539C61.1411 23.9213 62.0622 22.2487 62.7057 20.4131C62.8541 19.9921 63.0113 19.569 63.5556 19.5463C64.2307 19.5198 64.8903 19.4162 65.5522 19.298C66.1332 19.1937 66.4388 19.4787 66.4696 20.045C66.4931 20.4784 66.4762 20.9133 66.499 21.3474C66.7142 25.3067 70.2673 27.3459 73.8587 25.558C76.0888 24.4473 77.414 22.5308 78.255 20.3161C78.6987 19.1503 79.1931 18.3651 80.5829 18.5597C80.7056 18.5766 80.837 18.5215 80.9641 18.498C82.1762 18.2821 82.3121 18.3923 82.3304 19.6131C82.3444 20.5644 82.4773 21.4943 82.8101 22.392C83.3507 23.853 84.4188 24.7411 85.9144 25.129C87.9175 25.6468 89.6342 25.0114 91.1533 23.7421C92.4836 22.6314 93.5296 21.2593 94.0571 19.6462C94.5338 18.191 95.2963 17.4505 96.858 17.6011C96.9072 17.6077 96.9579 17.5857 97.0093 17.5813C97.8048 17.4998 98.0715 17.7422 97.9921 18.5223C97.9194 19.2319 97.7703 19.9348 97.8122 20.5578C97.8122 20.8332 97.8114 21.0125 97.8122 21.1902C97.8291 24.4657 100.285 24.8689 102.347 24.1571C102.73 24.0249 103.088 23.7957 103.426 23.5658C104.199 23.0399 104.837 22.3714 105.425 21.6559C106.144 20.7781 106.382 20.7693 107.074 21.6332C107.943 22.7203 109.06 23.4248 110.436 23.6628C113.895 24.2629 116.716 23.0303 119.112 20.6378C120.142 19.6124 120.146 19.5022 119.274 18.3342ZM60.1354 17.712C59.8247 19.7218 59.1247 21.5634 57.6247 23.0244C57.3514 23.2896 57.0356 23.5298 56.6977 23.7061C55.3461 24.4062 54.0444 23.7546 53.816 22.273C53.7572 21.8961 53.7667 21.5105 53.7403 21.0661C53.8799 18.9549 54.4638 16.9584 55.9815 15.31C56.3847 14.8707 56.8652 14.5226 57.4293 14.3095C58.7501 13.8086 59.8137 14.3837 60.1399 15.7353C60.2993 16.4001 60.2353 17.0598 60.1354 17.712ZM76.1329 15.9204C75.9742 18.1352 75.283 20.153 73.8087 21.866C73.5619 22.154 73.26 22.4125 72.9382 22.619C71.3927 23.607 69.8839 23.0244 69.7076 21.2247C69.4285 18.368 70.2482 15.8183 72.5056 13.8747C73.188 13.2885 74.0482 12.9315 74.9414 13.3634C75.9933 13.8688 76.1446 14.8729 76.1329 15.9204ZM91.9459 15.9755C91.6785 17.751 91.0079 19.3553 89.8921 20.7745C89.574 21.1785 89.2089 21.5325 88.7542 21.7911C87.0978 22.7299 85.7014 21.9931 85.5669 20.1023C85.55 19.8739 85.5633 19.644 85.5633 19.4148C85.6235 17.2948 86.2148 15.3497 87.6054 13.6969C88.193 12.9998 88.8923 12.4364 89.8553 12.3372C90.8654 12.2351 91.5243 12.6714 91.8592 13.6345C92.1281 14.4058 92.0664 15.1866 91.9459 15.9755ZM109.253 15.2145C109.546 13.9893 110.021 12.8345 110.918 11.9031C111.164 11.6475 111.456 11.4241 111.762 11.2434C112.679 10.6947 113.56 10.7013 114.131 11.2243C114.727 11.7701 114.859 12.8191 114.377 13.7123C113.486 15.3622 111.93 15.9425 110.378 16.1695C109.43 16.1731 109.097 15.8668 109.253 15.2145ZM26.0515 14.917C25.7481 21.0066 23.6957 26.2845 18.5868 30.0484C15.2651 32.4945 11.4453 33.2636 7.36776 32.9529C5.49975 32.8089 3.69198 32.3968 1.97456 31.6453C0.877114 31.1649 0.790435 30.9078 1.29949 29.828C2.14277 28.0467 2.14277 28.0489 3.91749 28.8246C4.06 28.887 4.2025 28.9487 4.34795 28.9987C5.25441 29.316 5.58055 29.1662 5.82663 28.256C6.32394 26.4057 6.78157 24.545 7.28695 22.6968C8.30507 18.9784 9.34448 15.2615 10.3795 11.5476C10.6807 10.4677 10.7886 10.3958 11.9375 10.3539C12.2717 10.3421 12.6089 10.3201 12.9431 10.3069C13.782 10.2716 14.0362 10.5625 13.8062 11.3735C13.2788 13.2422 12.7169 15.0999 12.1836 16.9672C11.1111 20.726 10.1062 24.5031 9.16378 28.2957C8.8031 29.7435 9.12484 30.066 10.6623 29.9007C14.6194 29.4769 17.5805 27.4517 19.7122 24.2438C22.1289 20.6077 23.1022 16.6161 22.3294 12.2733C21.495 7.59411 17.651 4.84169 12.88 5.52043C10.6366 5.8407 8.60403 6.66635 6.78378 8.0062C5.94049 8.62765 5.78183 8.59239 5.22208 7.71311C4.02547 5.83556 4.00637 5.80324 5.95812 4.63234C8.9581 2.83485 12.2218 1.90856 15.7293 2.31624C21.3936 2.97588 25.0562 6.71263 25.8671 12.4584C25.9817 13.2716 26.0632 14.084 26.0515 14.917Z" fill="#595959"/>
</g>
</svg>
